<svg xmlns="http://www.w3.org/2000/svg" viewBox="0 0 64 64">
  <rect width="64" height="64" rx="14" fill="#101010"/>
  <path transform="translate(0,8)" d="M48.493 39.950 C42.797 40.017 21.838 40.017 16.189 39.950 C10.539 39.884 15.252 39.810 14.587 39.574 C13.921 39.345 12.737 38.828 12.180 38.555 C11.622 38.282 11.653 38.245 11.243 37.913 C10.833 37.581 10.167 37.079 9.711 36.577 C9.254 36.075 8.821 35.433 8.511 34.924 C8.202 34.415 8.039 34.097 7.838 33.522 C7.637 32.946 7.389 32.164 7.304 31.485 C7.219 30.806 7.219 30.171 7.304 29.447 C7.389 28.724 7.528 27.942 7.838 27.159 C8.147 26.377 8.589 25.491 9.177 24.739 C9.765 23.986 10.640 23.196 11.383 22.635 C12.126 22.074 12.985 21.661 13.650 21.366 C14.316 21.070 14.958 20.938 15.384 20.856 C15.809 20.768 15.957 20.908 16.189 20.856 C16.421 20.805 16.661 20.871 16.785 20.539 C16.908 20.207 16.645 19.705 16.916 18.878 C17.187 18.052 17.915 16.421 18.387 15.572 C18.859 14.723 19.091 14.435 19.726 13.786 C20.360 13.136 21.475 12.206 22.194 11.690 C22.914 11.173 23.301 10.988 24.060 10.671 C24.818 10.354 25.685 9.970 26.730 9.778 C27.775 9.586 29.268 9.475 30.336 9.520 C31.404 9.564 32.380 9.837 33.138 10.029 C33.897 10.221 34.214 10.331 34.879 10.671 C35.545 11.011 36.280 11.306 37.147 12.066 C38.014 12.826 39.059 14.723 40.080 15.254 C41.102 15.786 42.526 15.188 43.284 15.254 C44.043 15.313 44.066 15.373 44.623 15.631 C45.181 15.889 46.040 16.347 46.628 16.782 C47.216 17.218 47.750 17.742 48.160 18.244 C48.570 18.745 48.849 19.240 49.097 19.771 C49.344 20.303 49.522 20.871 49.631 21.425 C49.739 21.978 49.306 22.650 49.762 23.085 C50.219 23.521 51.682 23.705 52.363 24.037 C53.044 24.362 53.330 24.621 53.833 25.056 C54.336 25.491 54.963 26.111 55.373 26.650 C55.784 27.189 56.062 27.647 56.302 28.303 C56.542 28.960 56.743 29.957 56.836 30.591 C56.921 31.226 56.921 31.529 56.836 32.119 C56.743 32.717 56.503 33.603 56.302 34.156 C56.101 34.710 55.900 35.013 55.637 35.433 C55.373 35.861 55.288 36.142 54.700 36.703 C54.112 37.264 52.819 38.326 52.100 38.806 C51.380 39.286 50.970 39.382 50.366 39.574 C49.762 39.766 54.189 39.884 48.493 39.950 Z" fill="none" stroke="#F2EEE6" stroke-width="3.2" stroke-linecap="round" stroke-linejoin="round"/>
</svg>