<?xml version="1.0" encoding="UTF-8"?>
<svg width="40px" height="32px" viewBox="0 0 40 32" version="1.1" xmlns="http://www.w3.org/2000/svg" xmlns:xlink="http://www.w3.org/1999/xlink">
    <title>bed</title>
    <g id="Page-1" stroke="none" stroke-width="1" fill="none" fill-rule="evenodd">
        <g id="bed" fill="#000000" fill-rule="nonzero">
            <path d="M38.75,20.625 C38.75,19.6015625 38.75,1.93125 38.75,1.25 C38.75,0.5596875 38.1903125,0 37.5,0 C36.8096875,0 36.25,0.5596875 36.25,1.25 L36.25,2.5 L3.75,2.5 L3.75,1.25 C3.75,0.5596875 3.1903125,0 2.5,0 C1.8096875,0 1.25,0.5596875 1.25,1.25 L1.25,20.625 C0.5596875,20.625 0,21.1846875 0,21.875 L0,30 C0,30.6903125 0.5596875,31.25 1.25,31.25 L4.375,31.25 C4.7684375,31.25 5.13890625,31.0647656 5.375,30.75 L6.875,28.75 L33.125,28.75 L34.625,30.75 C34.8610156,31.0647656 35.2315625,31.25 35.625,31.25 L38.75,31.25 C39.4403125,31.25 40,30.6903125 40,30 L40,21.875 C40,21.1846875 39.4403125,20.625 38.75,20.625 Z M36.25,15.0476563 C34.9057813,14.2680469 33.8439844,14.375 32.5,14.375 L32.5,11.875 C32.5,9.80726563 30.8177344,8.125 28.75,8.125 L22.5,8.125 C21.5403125,8.125 20.6639844,8.4878125 20,9.08289063 C19.3360156,8.4878125 18.4596875,8.125 17.5,8.125 L11.25,8.125 C9.18226562,8.125 7.5,9.80726563 7.5,11.875 L7.5,14.375 C6.09460937,14.375 5.08695312,14.2722656 3.75,15.0476563 L3.75,5 L36.25,5 L36.25,15.0476563 Z M10,14.375 L10,11.875 C10,11.1857812 10.5607812,10.625 11.25,10.625 L17.5,10.625 C18.1892188,10.625 18.75,11.1857812 18.75,11.875 L18.75,14.375 L10,14.375 Z M21.25,11.875 C21.25,11.1857812 21.8107812,10.625 22.5,10.625 L28.75,10.625 C29.4392188,10.625 30,11.1857812 30,11.875 L30,14.375 L21.25,14.375 L21.25,11.875 Z M3.75,19.375 C3.75,17.9964844 4.87148438,16.875 6.25,16.875 L33.75,16.875 C35.1285156,16.875 36.25,17.9964844 36.25,19.375 L36.25,20.625 L3.75,20.625 L3.75,19.375 Z M37.5,28.75 L36.25,28.75 L34.75,26.75 C34.5139844,26.4352344 34.1434375,26.25 33.75,26.25 L6.25,26.25 C5.8565625,26.25 5.48609375,26.4352344 5.25,26.75 L3.75,28.75 L2.5,28.75 L2.5,23.125 L37.5,23.125 L37.5,28.75 Z" id="Shape"></path>
        </g>
    </g>
</svg>